<mxfile host="65bd71144e" modified="2020-11-01T01:44:17.865Z" agent="5.0 (Macintosh; Intel Mac OS X 10_15_7) AppleWebKit/537.36 (KHTML, like Gecko) Code/1.50.1 Chrome/83.0.4103.122 Electron/9.2.1 Safari/537.36" etag="MCGjhFT8oCosOtE0XMkh" version="13.6.5">
    <diagram id="Ptf1XDcUshAJHyFpFtnE" name="Page-1">
        <mxGraphModel dx="467" dy="580" grid="1" gridSize="10" guides="1" tooltips="1" connect="1" arrows="1" fold="1" page="1" pageScale="1" pageWidth="800" pageHeight="800" math="0" shadow="0">
            <root>
                <mxCell id="0"/>
                <mxCell id="1" parent="0"/>
                <mxCell id="ZOvoqp8BJXh1wy40Sb7h-14" style="edgeStyle=orthogonalEdgeStyle;rounded=0;orthogonalLoop=1;jettySize=auto;html=1;exitX=0.5;exitY=0;exitDx=0;exitDy=0;entryX=0.5;entryY=1.038;entryDx=0;entryDy=0;entryPerimeter=0;endArrow=block;endFill=1;fontFamily=Fira Code;" parent="1" source="ZOvoqp8BJXh1wy40Sb7h-1" target="ZOvoqp8BJXh1wy40Sb7h-13" edge="1">
                    <mxGeometry relative="1" as="geometry"/>
                </mxCell>
                <mxCell id="19" style="rounded=0;orthogonalLoop=1;jettySize=auto;html=1;exitX=0.5;exitY=0;exitDx=0;exitDy=0;entryX=0.471;entryY=1.001;entryDx=0;entryDy=0;entryPerimeter=0;endArrow=diamond;endFill=1;" parent="1" source="20" target="18" edge="1">
                    <mxGeometry relative="1" as="geometry"/>
                </mxCell>
                <mxCell id="23" style="edgeStyle=none;rounded=0;orthogonalLoop=1;jettySize=auto;html=1;exitX=0.5;exitY=0;exitDx=0;exitDy=0;endArrow=diamond;endFill=1;" parent="1" source="24" edge="1">
                    <mxGeometry relative="1" as="geometry">
                        <mxPoint x="410" y="580" as="targetPoint"/>
                    </mxGeometry>
                </mxCell>
                <mxCell id="28" style="edgeStyle=orthogonalEdgeStyle;rounded=0;orthogonalLoop=1;jettySize=auto;html=1;entryX=0.5;entryY=1;entryDx=0;entryDy=0;entryPerimeter=0;endArrow=diamond;endFill=1;" parent="1" source="15" target="ZOvoqp8BJXh1wy40Sb7h-4" edge="1">
                    <mxGeometry relative="1" as="geometry"/>
                </mxCell>
                <mxCell id="15" value="DSALinkedList" style="swimlane;fontStyle=1;align=center;verticalAlign=top;childLayout=stackLayout;horizontal=1;startSize=26;horizontalStack=0;resizeParent=1;resizeParentMax=0;resizeLast=0;collapsible=1;marginBottom=0;labelBackgroundColor=none;fontFamily=Fira Code;fillColor=#FFFFFF;fontColor=#000000;" parent="1" vertex="1">
                    <mxGeometry x="220" y="390" width="360" height="190" as="geometry"/>
                </mxCell>
                <mxCell id="16" value="- firstNode: DSALinkedListNode&#10;- lastNode: DSALinkedListNode" style="text;strokeColor=none;fillColor=none;align=left;verticalAlign=top;spacingLeft=4;spacingRight=4;overflow=hidden;rotatable=0;points=[[0,0.5],[1,0.5]];portConstraint=eastwest;fontFamily=Fira Code;" parent="15" vertex="1">
                    <mxGeometry y="26" width="360" height="34" as="geometry"/>
                </mxCell>
                <mxCell id="17" value="" style="line;strokeWidth=1;fillColor=none;align=left;verticalAlign=middle;spacingTop=-1;spacingLeft=3;spacingRight=3;rotatable=0;labelPosition=right;points=[];portConstraint=eastwest;" parent="15" vertex="1">
                    <mxGeometry y="60" width="360" height="8" as="geometry"/>
                </mxCell>
                <mxCell id="18" value="+ insertFirst(Object newFirstNodeElement)&#10;+ insertLast(Object newLastNodeElement)&#10;+ peekFirst(): Object peekedFirstNodeElement&#10;+ peekLast(): Object peekedLastNodeElement&#10;+ removeFirst(): Object removedFirstNodeElement&#10;+ removeLast(): Object removedLastNodeElement&#10;+ isEmpty(): Bool isEmpty&#10;+ iterator(): Iterator DSALinkedList" style="text;strokeColor=none;fillColor=none;align=left;verticalAlign=top;spacingLeft=4;spacingRight=4;overflow=hidden;rotatable=0;points=[[0,0.5],[1,0.5]];portConstraint=eastwest;fontFamily=Fira Code;" parent="15" vertex="1">
                    <mxGeometry y="68" width="360" height="122" as="geometry"/>
                </mxCell>
                <mxCell id="20" value="DSALinkedListNode" style="swimlane;fontStyle=1;align=center;verticalAlign=top;childLayout=stackLayout;horizontal=1;startSize=26;horizontalStack=0;resizeParent=1;resizeParentMax=0;resizeLast=0;collapsible=1;marginBottom=0;labelBackgroundColor=none;fontFamily=Fira Code;fillColor=#FFFFFF;fontColor=#000000;" parent="1" vertex="1">
                    <mxGeometry x="40" y="620" width="260" height="88" as="geometry"/>
                </mxCell>
                <mxCell id="21" value="- element: Object&#10;- previousNode: DSALinkedListNode&#10;- nextNode: DSALinkedListNode" style="text;strokeColor=none;fillColor=none;align=left;verticalAlign=top;spacingLeft=4;spacingRight=4;overflow=hidden;rotatable=0;points=[[0,0.5],[1,0.5]];portConstraint=eastwest;fontFamily=Fira Code;" parent="20" vertex="1">
                    <mxGeometry y="26" width="260" height="54" as="geometry"/>
                </mxCell>
                <mxCell id="22" value="" style="line;strokeWidth=1;fillColor=none;align=left;verticalAlign=middle;spacingTop=-1;spacingLeft=3;spacingRight=3;rotatable=0;labelPosition=right;points=[];portConstraint=eastwest;" parent="20" vertex="1">
                    <mxGeometry y="80" width="260" height="8" as="geometry"/>
                </mxCell>
                <mxCell id="24" value="DSALinkedListIterator" style="swimlane;fontStyle=1;align=center;verticalAlign=top;childLayout=stackLayout;horizontal=1;startSize=26;horizontalStack=0;resizeParent=1;resizeParentMax=0;resizeLast=0;collapsible=1;marginBottom=0;labelBackgroundColor=none;fontFamily=Fira Code;fillColor=#FFFFFF;fontColor=#000000;" parent="1" vertex="1">
                    <mxGeometry x="350" y="620" width="410" height="110" as="geometry"/>
                </mxCell>
                <mxCell id="25" value="- iterNext: DSALinkedListNode" style="text;strokeColor=none;fillColor=none;align=left;verticalAlign=top;spacingLeft=4;spacingRight=4;overflow=hidden;rotatable=0;points=[[0,0.5],[1,0.5]];portConstraint=eastwest;fontFamily=Fira Code;" parent="24" vertex="1">
                    <mxGeometry y="26" width="410" height="24" as="geometry"/>
                </mxCell>
                <mxCell id="26" value="" style="line;strokeWidth=1;fillColor=none;align=left;verticalAlign=middle;spacingTop=-1;spacingLeft=3;spacingRight=3;rotatable=0;labelPosition=right;points=[];portConstraint=eastwest;" parent="24" vertex="1">
                    <mxGeometry y="50" width="410" height="8" as="geometry"/>
                </mxCell>
                <mxCell id="27" value="+ DSALinkedListIterator(DSALinkedList inDSALinkedList)&#10;+ hasNext(): Boolean hasNext&#10;+ next(): Object element&#10;" style="text;strokeColor=none;fillColor=none;align=left;verticalAlign=top;spacingLeft=4;spacingRight=4;overflow=hidden;rotatable=0;points=[[0,0.5],[1,0.5]];portConstraint=eastwest;fontFamily=Fira Code;" parent="24" vertex="1">
                    <mxGeometry y="58" width="410" height="52" as="geometry"/>
                </mxCell>
                <mxCell id="ZOvoqp8BJXh1wy40Sb7h-1" value="DSAQueue" style="swimlane;fontStyle=1;align=center;verticalAlign=top;childLayout=stackLayout;horizontal=1;startSize=26;horizontalStack=0;resizeParent=1;resizeParentMax=0;resizeLast=0;collapsible=1;marginBottom=0;fontFamily=Fira Code;" parent="1" vertex="1">
                    <mxGeometry x="220" y="170" width="360" height="180" as="geometry"/>
                </mxCell>
                <mxCell id="ZOvoqp8BJXh1wy40Sb7h-2" value="- stack: DSALinkedList&#10;- numElements: Integer" style="text;strokeColor=none;fillColor=none;align=left;verticalAlign=top;spacingLeft=4;spacingRight=4;overflow=hidden;rotatable=0;points=[[0,0.5],[1,0.5]];portConstraint=eastwest;fontFamily=Fira Code;" parent="ZOvoqp8BJXh1wy40Sb7h-1" vertex="1">
                    <mxGeometry y="26" width="360" height="34" as="geometry"/>
                </mxCell>
                <mxCell id="ZOvoqp8BJXh1wy40Sb7h-3" value="" style="line;strokeWidth=1;fillColor=none;align=left;verticalAlign=middle;spacingTop=-1;spacingLeft=3;spacingRight=3;rotatable=0;labelPosition=right;points=[];portConstraint=eastwest;" parent="ZOvoqp8BJXh1wy40Sb7h-1" vertex="1">
                    <mxGeometry y="60" width="360" height="8" as="geometry"/>
                </mxCell>
                <mxCell id="ZOvoqp8BJXh1wy40Sb7h-4" value="+ enqueue(Object pushElement)&#10;+ peek(): Object peekedElement&#10;+ dequeue(): Object poppedElement&#10;+ getNumElements: Integer numElements&#10;+ isEmpty(): Bool isEmpty&#10;+ toString(): String stackString&#10;+ iterator(): Iterator queueIter&#10;&#10;&#10;" style="text;strokeColor=none;fillColor=none;align=left;verticalAlign=top;spacingLeft=4;spacingRight=4;overflow=hidden;rotatable=0;points=[[0,0.5],[1,0.5]];portConstraint=eastwest;fontFamily=Fira Code;" parent="ZOvoqp8BJXh1wy40Sb7h-1" vertex="1">
                    <mxGeometry y="68" width="360" height="112" as="geometry"/>
                </mxCell>
                <mxCell id="ZOvoqp8BJXh1wy40Sb7h-10" value="UnitTestDSAQueue" style="swimlane;fontStyle=1;align=center;verticalAlign=top;childLayout=stackLayout;horizontal=1;startSize=26;horizontalStack=0;resizeParent=1;resizeParentMax=0;resizeLast=0;collapsible=1;marginBottom=0;fontFamily=Fira Code;" parent="1" vertex="1">
                    <mxGeometry x="295" y="70" width="210" height="60" as="geometry"/>
                </mxCell>
                <mxCell id="ZOvoqp8BJXh1wy40Sb7h-12" value="" style="line;strokeWidth=1;fillColor=none;align=left;verticalAlign=middle;spacingTop=-1;spacingLeft=3;spacingRight=3;rotatable=0;labelPosition=right;points=[];portConstraint=eastwest;" parent="ZOvoqp8BJXh1wy40Sb7h-10" vertex="1">
                    <mxGeometry y="26" width="210" height="8" as="geometry"/>
                </mxCell>
                <mxCell id="ZOvoqp8BJXh1wy40Sb7h-13" value="+ main()" style="text;strokeColor=none;fillColor=none;align=left;verticalAlign=top;spacingLeft=4;spacingRight=4;overflow=hidden;rotatable=0;points=[[0,0.5],[1,0.5]];portConstraint=eastwest;fontFamily=Fira Code;" parent="ZOvoqp8BJXh1wy40Sb7h-10" vertex="1">
                    <mxGeometry y="34" width="210" height="26" as="geometry"/>
                </mxCell>
            </root>
        </mxGraphModel>
    </diagram>
</mxfile>